<svg width="24" height="24" viewBox="0 0 24 24" fill="none" xmlns="http://www.w3.org/2000/svg">
<path fill-rule="evenodd" clip-rule="evenodd" d="M12 3.81818C7.48131 3.81818 3.81818 7.48131 3.81818 12C3.81818 16.5187 7.48131 20.1818 12 20.1818C16.5187 20.1818 20.1818 16.5187 20.1818 12C20.1818 7.48131 16.5187 3.81818 12 3.81818ZM2 12C2 6.47715 6.47715 2 12 2C17.5228 2 22 6.47715 22 12C22 17.5228 17.5228 22 12 22C6.47715 22 2 17.5228 2 12ZM11.3572 9.00646C11.0022 8.65144 11.0022 8.07583 11.3572 7.72081C11.7122 7.36579 12.2878 7.36579 12.6428 7.72081L16.2792 11.3572C16.6342 11.7122 16.6342 12.2878 16.2792 12.6428L12.6428 16.2792C12.2878 16.6342 11.7122 16.6342 11.3572 16.2792C11.0022 15.9242 11.0022 15.3486 11.3572 14.9935L13.4416 12.9091H8.36364C7.86156 12.9091 7.45455 12.5021 7.45455 12C7.45455 11.4979 7.86156 11.0909 8.36364 11.0909H13.4416L11.3572 9.00646Z" fill="#00FFC2"/>
</svg>
