<svg width="18" height="14" viewBox="0 0 18 14" fill="none" xmlns="http://www.w3.org/2000/svg">
<path d="M1.50004 0.333344H6.50004C6.97396 0.334983 7.44208 0.437662 7.87318 0.63453C8.30428 0.831398 8.68844 1.11793 9.00004 1.47501C9.31164 1.11793 9.6958 0.831398 10.1269 0.63453C10.558 0.437662 11.0261 0.334983 11.5 0.333344H16.5C16.7211 0.333344 16.933 0.421141 17.0893 0.577421C17.2456 0.733702 17.3334 0.945663 17.3334 1.16668V12C17.3334 12.221 17.2456 12.433 17.0893 12.5893C16.933 12.7455 16.7211 12.8333 16.5 12.8333H11.8417C11.6231 12.8343 11.4136 12.9211 11.2584 13.075L10.9084 13.425C10.7532 13.579 10.5437 13.6658 10.325 13.6667H7.67504C7.45642 13.6658 7.24692 13.579 7.09171 13.425L6.74171 13.075C6.58649 12.9211 6.37699 12.8343 6.15837 12.8333H1.50004C1.27903 12.8333 1.06706 12.7455 0.910784 12.5893C0.754503 12.433 0.666706 12.221 0.666706 12V1.16668C0.666706 0.945663 0.754503 0.733702 0.910784 0.577421C1.06706 0.421141 1.27903 0.333344 1.50004 0.333344ZM9.83337 10.7833C10.3398 10.4896 10.9146 10.3344 11.5 10.3333H15.6667V2.00001H11.5C11.058 2.00001 10.6341 2.1756 10.3215 2.48816C10.009 2.80073 9.83337 3.22465 9.83337 3.66668V10.7833ZM2.33337 10.3333H6.50004C7.08547 10.3344 7.66031 10.4896 8.16671 10.7833V3.66668C8.16671 3.22465 7.99111 2.80073 7.67855 2.48816C7.36599 2.1756 6.94207 2.00001 6.50004 2.00001H2.33337V10.3333Z" fill="#4A0A52"/>
</svg>
