<svg width="6" height="6" viewBox="0 0 6 6" fill="none" xmlns="http://www.w3.org/2000/svg">
<path d="M0.642919 5.36777C0.512744 5.23759 0.512744 5.02654 0.642919 4.89636L4.88556 0.653722C5.01573 0.523548 5.22679 0.523548 5.35697 0.653722C5.48714 0.783897 5.48714 0.994952 5.35697 1.12513L1.11432 5.36777C0.984149 5.49794 0.773094 5.49794 0.642919 5.36777Z" fill="#16061C"/>
<path d="M0.642919 0.653722C0.773094 0.523548 0.984149 0.523548 1.11432 0.653722L5.35696 4.89636C5.48714 5.02654 5.48714 5.23759 5.35696 5.36777C5.22679 5.49794 5.01573 5.49794 4.88556 5.36777L0.642919 1.12513C0.512744 0.994952 0.512744 0.783897 0.642919 0.653722Z" fill="#16061C"/>
</svg>
