<svg width="18" height="18" viewBox="0 0 18 18" fill="none" xmlns="http://www.w3.org/2000/svg">
<path d="M1.13703 2.5168H11.9417C12.1599 1.89958 12.5893 1.37939 13.154 1.04814C13.7187 0.7169 14.3823 0.595941 15.0275 0.706644C15.6727 0.817347 16.258 1.15258 16.68 1.65311C17.1019 2.15363 17.3334 2.7872 17.3334 3.44186C17.3334 4.09651 17.1019 4.73009 16.68 5.23061C16.258 5.73113 15.6727 6.06637 15.0275 6.17707C14.3823 6.28777 13.7187 6.16681 13.154 5.83557C12.5893 5.50433 12.1599 4.98413 11.9417 4.36692H1.13703C1.01436 4.36692 0.896711 4.31819 0.809971 4.23145C0.723228 4.1447 0.674498 4.02706 0.674498 3.90439V2.97933C0.674498 2.85666 0.723228 2.73901 0.809971 2.65227C0.896711 2.56553 1.01436 2.5168 1.13703 2.5168ZM14.5504 4.36692C14.7334 4.36692 14.9122 4.31266 15.0643 4.21102C15.2165 4.10937 15.335 3.9649 15.405 3.79586C15.4751 3.62683 15.4934 3.44083 15.4577 3.26139C15.422 3.08194 15.3339 2.91711 15.2045 2.78774C15.0751 2.65837 14.9103 2.57027 14.7309 2.53457C14.5514 2.49888 14.3654 2.5172 14.1964 2.58721C14.0274 2.65723 13.8829 2.7758 13.7812 2.92792C13.6796 3.08005 13.6253 3.2589 13.6253 3.44186C13.6253 3.6872 13.7228 3.92249 13.8963 4.09597C14.0698 4.26946 14.3051 4.36692 14.5504 4.36692ZM1.13703 8.06716H6.39137C6.58582 7.53141 6.94051 7.06852 7.40724 6.7414C7.87396 6.41428 8.43009 6.2388 9.00004 6.2388C9.56999 6.2388 10.1261 6.41428 10.5928 6.7414C11.0596 7.06852 11.4143 7.53141 11.6087 8.06716H16.863C16.9857 8.06716 17.1034 8.11589 17.1901 8.20263C17.2768 8.28937 17.3256 8.40702 17.3256 8.52969V9.45475C17.3256 9.57742 17.2768 9.69506 17.1901 9.78181C17.1034 9.86855 16.9857 9.91728 16.863 9.91728H11.6087C11.4143 10.453 11.0596 10.9159 10.5928 11.243C10.1261 11.5702 9.56999 11.7456 9.00004 11.7456C8.43009 11.7456 7.87396 11.5702 7.40724 11.243C6.94051 10.9159 6.58582 10.453 6.39137 9.91728H1.13703C1.01436 9.91728 0.896711 9.86855 0.809971 9.78181C0.723228 9.69506 0.674498 9.57742 0.674498 9.45475V8.52969C0.674498 8.40702 0.723228 8.28937 0.809971 8.20263C0.896711 8.11589 1.01436 8.06716 1.13703 8.06716ZM9.00004 9.91728C9.183 9.91728 9.36185 9.86302 9.51398 9.76138C9.6661 9.65973 9.78467 9.51526 9.85468 9.34622C9.9247 9.17719 9.94302 8.99119 9.90732 8.81175C9.87163 8.6323 9.78353 8.46747 9.65415 8.3381C9.52478 8.20873 9.35995 8.12063 9.18051 8.08493C9.00106 8.04924 8.81507 8.06756 8.64603 8.13757C8.477 8.20759 8.33253 8.32616 8.23088 8.47828C8.12923 8.63041 8.07498 8.80926 8.07498 8.99222C8.07498 9.23756 8.17244 9.47285 8.34592 9.64633C8.5194 9.81982 8.7547 9.91728 9.00004 9.91728ZM3.44968 11.7674C4.02224 11.769 4.58029 11.9477 5.04732 12.2789C5.51435 12.6101 5.8675 13.0777 6.05835 13.6175H16.863C16.9857 13.6175 17.1034 13.6662 17.1901 13.753C17.2768 13.8397 17.3256 13.9574 17.3256 14.08V15.0051C17.3256 15.1278 17.2768 15.2454 17.1901 15.3322C17.1034 15.4189 16.9857 15.4676 16.863 15.4676H6.05835C5.88864 15.9476 5.59017 16.3717 5.1956 16.6934C4.80102 17.0151 4.32555 17.2221 3.82122 17.2917C3.31689 17.3613 2.80313 17.2908 2.33617 17.088C1.86922 16.8851 1.46706 16.5577 1.17371 16.1416C0.880362 15.7255 0.707125 15.2368 0.672962 14.7288C0.6388 14.2208 0.745026 13.7133 0.980015 13.2616C1.21501 12.81 1.5697 12.4317 2.00529 12.1682C2.44088 11.9046 2.94057 11.766 3.44968 11.7674ZM3.44968 15.4676C3.63264 15.4676 3.81149 15.4134 3.96361 15.3117C4.11574 15.2101 4.23431 15.0656 4.30432 14.8966C4.37434 14.7275 4.39266 14.5416 4.35696 14.3621C4.32127 14.1827 4.23317 14.0178 4.1038 13.8885C3.97442 13.7591 3.80959 13.671 3.63015 13.6353C3.45071 13.5996 3.26471 13.6179 3.09567 13.6879C2.92664 13.7579 2.78217 13.8765 2.68052 14.0286C2.57887 14.1808 2.52462 14.3596 2.52462 14.5426C2.52462 14.7879 2.62208 15.0232 2.79556 15.1967C2.96904 15.3702 3.20434 15.4676 3.44968 15.4676Z" fill="#4A0A52"/>
</svg>
