<svg width="11" height="16" viewBox="0 0 11 16" fill="none" xmlns="http://www.w3.org/2000/svg">
<path d="M10.0173 6.31117L4.83214 14.7704C4.78208 14.8513 4.71234 14.9181 4.62944 14.9648C4.54654 15.0114 4.45318 15.0363 4.35806 15.037H4.20992C4.15858 15.0369 4.1078 15.0264 4.06067 15.006C4.01355 14.9856 3.97108 14.9559 3.93584 14.9185C3.90082 14.8811 3.87413 14.8366 3.85753 14.7881C3.84093 14.7396 3.83481 14.6881 3.83955 14.637L4.25436 9.85189H1.60993C1.51214 9.85083 1.41631 9.82432 1.33189 9.77496C1.24746 9.72561 1.17735 9.65511 1.12845 9.57041L0.987715 9.32597C0.953037 9.26907 0.934692 9.20372 0.934692 9.13708C0.934692 9.07044 0.953037 9.00509 0.987715 8.94819L6.17287 0.488985C6.22424 0.405959 6.29632 0.337721 6.38203 0.290969C6.46774 0.244217 6.56414 0.22056 6.66175 0.222321H6.8099C6.86124 0.222416 6.91202 0.232974 6.95914 0.253352C7.00627 0.273729 7.04874 0.303497 7.08397 0.340838C7.119 0.378292 7.14569 0.422742 7.16228 0.471259C7.17888 0.519776 7.18501 0.57126 7.18027 0.622318L6.75805 5.40747H9.40248C9.50027 5.40853 9.5961 5.43504 9.68052 5.4844C9.76495 5.53376 9.83506 5.60426 9.88396 5.68895L10.0247 5.9334C10.0583 5.99097 10.0753 6.05669 10.074 6.12332C10.0727 6.18996 10.0531 6.25495 10.0173 6.31117Z" fill="#4A0A52"/>
</svg>
