<svg width="14" height="18" viewBox="0 0 14 18" fill="none" xmlns="http://www.w3.org/2000/svg">
<path d="M13.6654 16.4984C13.6657 16.6473 13.6261 16.7935 13.5507 16.9219C13.4753 17.0503 13.3669 17.1562 13.2368 17.2285C13.1066 17.3008 12.9595 17.3369 12.8107 17.333C12.6618 17.3292 12.5167 17.2856 12.3905 17.2067L7.441 14.107C7.30857 14.0242 7.15554 13.9803 6.99937 13.9803C6.84321 13.9803 6.69018 14.0242 6.55775 14.107L1.60825 17.2067C1.482 17.2856 1.33691 17.3292 1.18808 17.333C1.03925 17.3369 0.892107 17.3008 0.761962 17.2285C0.631817 17.1562 0.52342 17.0503 0.448047 16.9219C0.372674 16.7935 0.333077 16.6473 0.333376 16.4984V2.33316C0.333376 1.89117 0.508953 1.46729 0.821482 1.15476C1.13401 0.842234 1.55789 0.666656 1.99988 0.666656H11.9989C12.4409 0.666656 12.8647 0.842234 13.1773 1.15476C13.4898 1.46729 13.6654 1.89117 13.6654 2.33316V16.4984Z" fill="#4A0A52"/>
</svg>
