<svg width="154" height="40" viewBox="0 0 154 40" fill="none" xmlns="http://www.w3.org/2000/svg">
<path d="M12.1168 0L21.2494 26.9065H21.3573L30.0225 0H42.1393V39.1367H34.0854V11.4029H33.9775L24.3775 39.1367H17.7618L8.16179 11.6906H8.05393V39.1367H0V0H12.1168Z" fill="white"/>
<path d="M115.847 10.7914V16.0072H110.166V30.036C110.166 31.3669 110.382 32.2302 110.813 32.6619C111.245 33.0936 112.144 33.3094 113.438 33.3094C113.87 33.3094 114.301 33.2734 114.696 33.2374C115.092 33.2015 115.488 33.1295 115.847 33.0576V39.1007C115.2 39.2087 114.445 39.2806 113.654 39.3166C112.863 39.3525 112.072 39.3885 111.317 39.3885C110.13 39.3885 108.98 39.3166 107.901 39.1367C106.822 38.9569 105.888 38.6691 105.061 38.1655C104.234 37.6979 103.586 37.0144 103.119 36.1511C102.652 35.2878 102.4 34.1367 102.4 32.6979V16.0072H97.6898V10.7914H102.4V2.30218H110.166V10.7914H115.847Z" fill="white"/>
<path d="M116.422 18.8129C117.105 16.9784 118.112 15.3957 119.371 14.1007C120.629 12.8057 122.175 11.7985 123.973 11.0791C125.771 10.3597 127.784 9.99998 130.013 9.99998C132.243 9.99998 134.256 10.3597 136.054 11.0791C137.851 11.7985 139.398 12.8057 140.692 14.1007C141.986 15.3957 142.957 16.9784 143.64 18.8129C144.323 20.6475 144.683 22.6978 144.683 24.964C144.683 27.2302 144.323 29.2806 143.64 31.1151C142.957 32.9496 141.95 34.4964 140.692 35.7914C139.398 37.0863 137.887 38.0935 136.054 38.777C134.256 39.4604 132.243 39.8201 130.013 39.8201C127.784 39.8201 125.771 39.4604 123.973 38.777C122.175 38.0935 120.665 37.0863 119.371 35.7914C118.076 34.4964 117.105 32.9496 116.422 31.1151C115.739 29.2806 115.38 27.2302 115.38 24.964C115.416 22.7338 115.739 20.6834 116.422 18.8129ZM123.505 28.3093C123.721 29.3885 124.081 30.3597 124.62 31.223C125.159 32.0863 125.843 32.7698 126.741 33.2734C127.604 33.777 128.719 34.0288 130.013 34.0288C131.308 34.0288 132.422 33.777 133.321 33.2734C134.22 32.7698 134.939 32.0863 135.443 31.223C135.982 30.3597 136.341 29.3885 136.557 28.3093C136.773 27.2302 136.881 26.1151 136.881 25C136.881 23.8849 136.773 22.7698 136.557 21.6547C136.341 20.5755 135.982 19.6043 135.443 18.741C134.903 17.9137 134.184 17.2302 133.321 16.6906C132.422 16.1511 131.308 15.8993 130.013 15.8993C128.683 15.8993 127.604 16.1511 126.741 16.6906C125.878 17.2302 125.159 17.9137 124.62 18.741C124.081 19.5683 123.721 20.5396 123.505 21.6547C123.29 22.7338 123.182 23.8489 123.182 25C123.182 26.1151 123.29 27.2302 123.505 28.3093Z" fill="white"/>
<path d="M64.0718 30.1439C63.7123 31.1151 62.9572 32.1223 61.9145 32.8777C60.7999 33.6691 59.4336 34.0648 57.8516 34.0648C55.6583 34.0648 53.9684 33.4892 52.8179 32.3741C51.6314 31.259 51.0201 29.4245 50.9123 26.9065H71.3347C71.4785 24.7122 71.2988 22.6259 70.7954 20.6115C70.292 18.5971 69.4651 16.7986 68.3145 15.2518C67.1639 13.6691 65.6898 12.446 63.892 11.5108C62.0943 10.5755 60.0089 10.1079 57.5999 10.1079C55.4426 10.1079 53.501 10.5036 51.7033 11.259C49.9415 12.0144 48.3954 13.0935 47.137 14.4245C45.8426 15.7554 44.8718 17.3381 44.1887 19.1727C43.5055 21.0072 43.146 22.9856 43.146 25.1079C43.146 27.3022 43.4696 29.3165 44.1527 31.1511C44.8359 32.9856 45.7707 34.5324 47.0291 35.8633C48.2875 37.1942 49.7977 38.2014 51.5595 38.9209C53.3572 39.6403 55.3707 40 57.5999 40C60.7999 40 63.5684 39.2806 65.8336 37.8058C68.0628 36.3669 70.1482 33.5252 70.9392 30.2878L64.0718 30.1439ZM51.2359 20.0719C51.4516 19.3885 51.7752 18.705 52.2785 18.0935C52.7819 17.482 53.4291 16.9424 54.2561 16.5468C55.083 16.1151 56.1257 15.8993 57.3482 15.8993C59.2538 15.8993 60.6561 16.4029 61.5909 17.446C62.5257 18.4532 63.1729 19.964 63.5325 21.9424H50.8763C50.9123 21.3669 51.0561 20.7554 51.2359 20.0719Z" fill="white"/>
<path d="M97.1503 26.7267C96.6469 25.8274 95.9638 25.072 95.1368 24.4964C94.3099 23.8849 93.3391 23.4173 92.2604 23.0576C91.1818 22.6979 90.0672 22.3741 88.9526 22.1223C87.8739 21.8705 86.7953 21.6187 85.7166 21.4029C84.638 21.1871 83.7031 20.9353 82.9121 20.6475C82.0852 20.3598 81.438 20 80.8986 19.5684C80.3953 19.1367 80.1436 18.5612 80.1436 17.8777C80.1436 17.3022 80.2874 16.8346 80.575 16.4749C80.8627 16.1151 81.2222 15.8633 81.6537 15.6835C82.0852 15.5036 82.5526 15.3957 83.0559 15.3238C83.5593 15.2518 84.0267 15.2518 84.4941 15.2518C85.8964 15.2518 87.0829 15.5036 88.1256 16.0432C89.1323 16.5828 89.7076 17.59 89.8155 19.1008H97.2222C97.0784 17.3382 96.6469 15.8993 95.8919 14.7482C95.1368 13.5972 94.202 12.6619 93.0874 11.9785C91.9728 11.295 90.6784 10.7914 89.2402 10.5036C87.802 10.2159 86.2919 10.072 84.7818 10.072C83.2717 10.072 81.7616 10.2159 80.2874 10.4677C78.8132 10.7554 77.5189 11.2231 76.3324 11.9065C75.1458 12.59 74.211 13.4892 73.5279 14.6763C72.8088 15.8633 72.4492 17.3382 72.4492 19.1727C72.4492 20.4317 72.7009 21.4749 73.2043 22.3382C73.7076 23.2015 74.3908 23.9209 75.2177 24.4605C76.0447 25.036 77.0155 25.4677 78.0941 25.8274C79.1728 26.1871 80.2874 26.4749 81.402 26.7267C84.1705 27.3022 86.3279 27.9137 87.9099 28.4892C89.4919 29.0648 90.2469 29.9641 90.2469 31.1151C90.2469 31.7986 90.0672 32.3741 89.7436 32.8418C89.42 33.3094 88.9885 33.6691 88.5211 33.9209C88.0177 34.2087 87.4784 34.3885 86.8672 34.5324C86.2559 34.6763 85.6807 34.7123 85.1413 34.7123C84.3863 34.7123 83.6312 34.6403 82.9121 34.4245C82.193 34.2446 81.5818 33.9569 81.0065 33.5612C80.4672 33.1655 79.9998 32.6979 79.6762 32.0864C79.3526 31.5468 79.2088 30.8634 79.1728 30.1439H71.7661C71.8739 31.9425 72.2694 33.4533 73.0245 34.6763C73.8155 35.9353 74.8222 36.9425 76.0447 37.7339C77.2672 38.4893 78.6694 39.0648 80.2514 39.3885C81.8335 39.7123 83.4155 39.8921 85.0694 39.8921C86.6874 39.8921 88.2694 39.7482 89.8155 39.4245C91.3615 39.1008 92.7638 38.5612 93.9503 37.8058C95.1368 37.0504 96.1436 36.0072 96.8986 34.7482C97.6537 33.4893 98.0132 31.9425 98.0132 30.072C97.9413 28.7051 97.6537 27.6259 97.1503 26.7267Z" fill="white"/>
<path d="M153.6 30.6835V39.1367H145.007V30.6835H153.6Z" fill="#00FFC2"/>
</svg>
