<svg width="18" height="17" viewBox="0 0 18 17" fill="none" xmlns="http://www.w3.org/2000/svg">
<path d="M11.2823 11.2824C12.0868 11.2824 12.8582 10.9628 13.427 10.394C13.9958 9.8252 14.3154 9.05373 14.3154 8.24931V3.69972C14.3154 2.8953 13.9958 2.12383 13.427 1.55502C12.8582 0.98621 12.0868 0.666656 11.2823 0.666656H3.69969C2.89527 0.666656 2.1238 0.98621 1.55499 1.55502C0.98618 2.12383 0.666626 2.8953 0.666626 3.69972V13.178C0.666626 13.2786 0.70657 13.375 0.777671 13.4461C0.848772 13.5172 0.945206 13.5572 1.04576 13.5572C1.09535 13.5569 1.14438 13.5467 1.18996 13.5271C1.23554 13.5076 1.27674 13.4791 1.31115 13.4434L2.82768 11.9269C3.04328 11.717 3.29839 11.5519 3.57824 11.4413C3.85808 11.3306 4.15709 11.2766 4.45795 11.2824H11.2823ZM15.8319 3.69972V9.76584C15.8319 10.5703 15.5124 11.3417 14.9436 11.9105C14.3748 12.4793 13.6033 12.7989 12.7989 12.7989H3.69969C3.69969 13.2011 3.85946 13.5868 4.14387 13.8712C4.42827 14.1557 4.81401 14.3154 5.21622 14.3154H13.5571C13.857 14.3147 14.1541 14.3733 14.4313 14.4878C14.7085 14.6023 14.9603 14.7705 15.1722 14.9827L16.6888 16.4992C16.7232 16.5349 16.7644 16.5634 16.81 16.5829C16.8555 16.6025 16.9046 16.6127 16.9542 16.613C17.0547 16.613 17.1511 16.573 17.2222 16.5019C17.2934 16.4308 17.3333 16.3344 17.3333 16.2338V5.21625C17.3333 4.81665 17.1756 4.4332 16.8945 4.14922C16.6134 3.86525 16.2315 3.70371 15.8319 3.69972Z" fill="#4A0A52"/>
</svg>
