<svg width="24" height="24" viewBox="0 0 24 24" fill="none" xmlns="http://www.w3.org/2000/svg">
<rect width="24" height="24" fill="#4A0A52"/>
<path fill-rule="evenodd" clip-rule="evenodd" d="M17.6865 8.91107C18.1817 8.57522 18.6183 8.16315 18.9795 7.69075C18.9892 7.67672 18.9957 7.66079 18.9985 7.64407C19.0012 7.62735 19.0003 7.61023 18.9956 7.59392C18.9909 7.5776 18.9827 7.56248 18.9715 7.5496C18.9603 7.53672 18.9463 7.5264 18.9306 7.51935C18.912 7.50697 18.8901 7.50035 18.8677 7.50035C18.8453 7.50035 18.8233 7.50697 18.8048 7.51935C18.354 7.68363 17.8846 7.79411 17.4069 7.84843C17.9524 7.52811 18.3825 7.04878 18.637 6.47728C18.6488 6.45877 18.6551 6.43739 18.6551 6.41558C18.6551 6.39376 18.6488 6.37238 18.637 6.35388C18.6182 6.34233 18.5964 6.3362 18.5741 6.3362C18.5519 6.3362 18.5301 6.34233 18.5112 6.35388C17.9857 6.62247 17.4229 6.81417 16.8407 6.9229C16.4232 6.49473 15.8853 6.19795 15.2954 6.07025C14.7055 5.94255 14.0902 5.98969 13.5277 6.20569C12.9652 6.42169 12.4808 6.7968 12.1361 7.28338C11.7914 7.76996 11.6019 8.34605 11.5916 8.93849C11.59 9.16957 11.6182 9.39992 11.6755 9.62407C9.43869 9.5182 7.33119 8.56449 5.79736 6.96404C5.75363 6.91639 5.69804 6.8807 5.63603 6.86046C5.57402 6.84021 5.50772 6.83611 5.4436 6.84855C5.37949 6.86099 5.31977 6.88954 5.27029 6.93142C5.2208 6.9733 5.18326 7.02706 5.16131 7.08744C4.95105 7.70215 4.95429 8.36787 5.17053 8.98059C5.38676 9.5933 5.8038 10.1185 6.35652 10.4742C5.97607 10.471 5.60029 10.3917 5.25218 10.2411C5.22344 10.2292 5.19208 10.2248 5.16111 10.2283C5.13014 10.2318 5.1006 10.243 5.07533 10.2609C5.05006 10.2788 5.02991 10.3028 5.01681 10.3305C5.00372 10.3583 4.99812 10.3888 5.00056 10.4193C5.06854 11.0491 5.33871 11.6415 5.77211 12.1109C6.2055 12.5804 6.77971 12.9027 7.41193 13.0314C7.06736 13.13 6.70666 13.1625 6.34953 13.1274C6.31845 13.125 6.28727 13.1305 6.25898 13.1433C6.23069 13.1561 6.20624 13.1759 6.18799 13.2007C6.16974 13.2255 6.1583 13.2545 6.15476 13.2848C6.15123 13.3152 6.15572 13.346 6.1678 13.3742C6.40622 13.8884 6.78799 14.326 7.26906 14.6365C7.75014 14.9471 8.31092 15.1179 8.88671 15.1292C7.85824 15.9074 6.60632 16.3487 5.30809 16.3907C5.2599 16.3907 5.21367 16.4095 5.17959 16.4429C5.14551 16.4763 5.12637 16.5217 5.12637 16.5689V16.6444C5.12625 16.6778 5.13611 16.7106 5.15474 16.7386C5.17337 16.7666 5.19995 16.7887 5.23121 16.802C6.41597 17.3745 7.71977 17.6702 9.04048 17.6659C10.1714 17.6813 11.2942 17.4759 12.3434 17.0617C13.3927 16.6474 14.3474 16.0325 15.152 15.2529C15.9567 14.4732 16.5951 13.5443 17.0303 12.5203C17.4654 11.4962 17.6884 10.3975 17.6865 9.28813V8.91107Z" fill="white"/>
</svg>
