<svg width="18" height="13" viewBox="0 0 18 13" fill="none" xmlns="http://www.w3.org/2000/svg">
<path d="M5.29613 11.1909C5.23801 11.3063 5.21034 11.4345 5.21574 11.5636C5.22115 11.6926 5.25945 11.8182 5.32702 11.9282C5.39458 12.0383 5.48916 12.1293 5.60178 12.1925C5.71439 12.2558 5.84131 12.2892 5.97047 12.2896H16.578C16.7071 12.2892 16.8341 12.2558 16.9467 12.1925C17.0593 12.1293 17.1539 12.0383 17.2214 11.9282C17.289 11.8182 17.3273 11.6926 17.3327 11.5636C17.3381 11.4345 17.3104 11.3063 17.2523 11.1909L16.1613 9.00122C15.9723 8.62265 15.6814 8.30435 15.3213 8.08214C14.9612 7.85993 14.5462 7.74264 14.1231 7.74347H8.42535C8.00222 7.74264 7.58727 7.85993 7.22718 8.08214C6.8671 8.30435 6.57619 8.62265 6.38719 9.00122L5.29613 11.1909ZM11.2742 6.22811C10.6748 6.22811 10.0888 6.05036 9.59045 5.71734C9.09205 5.38432 8.70359 4.91099 8.47421 4.3572C8.24482 3.80341 8.1848 3.19403 8.30174 2.60613C8.41868 2.01823 8.70733 1.4782 9.13118 1.05435C9.55504 0.630496 10.0951 0.341849 10.683 0.224908C11.2709 0.107967 11.8802 0.167985 12.434 0.397373C12.9878 0.626761 13.4612 1.01522 13.7942 1.51362C14.1272 2.01201 14.3049 2.59797 14.3049 3.19739C14.3049 4.00119 13.9856 4.77207 13.4173 5.34044C12.8489 5.90881 12.078 6.22811 11.2742 6.22811ZM1.04555 4.71275H2.93975V2.81855C2.93975 2.71808 2.97966 2.62172 3.05071 2.55067C3.12175 2.47963 3.21811 2.43971 3.31859 2.43971H4.07627C4.17674 2.43971 4.2731 2.47963 4.34415 2.55067C4.41519 2.62172 4.45511 2.71808 4.45511 2.81855V4.71275H6.34931C6.44978 4.71275 6.54614 4.75267 6.61719 4.82371C6.68823 4.89476 6.72815 4.99112 6.72815 5.09159V5.84927C6.72815 5.94975 6.68823 6.04611 6.61719 6.11715C6.54614 6.1882 6.44978 6.22811 6.34931 6.22811H4.45511V8.12231C4.45511 8.22279 4.41519 8.31915 4.34415 8.39019C4.2731 8.46124 4.17674 8.50115 4.07627 8.50115H3.31859C3.21811 8.50115 3.12175 8.46124 3.05071 8.39019C2.97966 8.31915 2.93975 8.22279 2.93975 8.12231V6.22811H1.04555C0.945072 6.22811 0.848711 6.1882 0.777666 6.11715C0.706619 6.04611 0.666706 5.94975 0.666706 5.84927V5.09159C0.666706 4.99112 0.706619 4.89476 0.777666 4.82371C0.848711 4.75267 0.945072 4.71275 1.04555 4.71275Z" fill="#4A0A52"/>
</svg>
