<svg width="18" height="18" viewBox="0 0 18 18" fill="none" xmlns="http://www.w3.org/2000/svg">
<path d="M8.99996 0.666656C7.35178 0.666656 5.74062 1.1554 4.37021 2.07108C2.9998 2.98675 1.9317 4.28824 1.30097 5.81096C0.670237 7.33368 0.505209 9.00923 0.826752 10.6257C1.1483 12.2422 1.94197 13.7271 3.10741 14.8925C4.27284 16.058 5.7577 16.8517 7.37421 17.1732C8.99072 17.4947 10.6663 17.3297 12.189 16.699C13.7117 16.0683 15.0132 15.0001 15.9289 13.6297C16.8446 12.2593 17.3333 10.6482 17.3333 8.99999C17.3333 7.90564 17.1177 6.82201 16.699 5.81096C16.2802 4.79991 15.6663 3.88125 14.8925 3.10743C14.1187 2.33361 13.2 1.71978 12.189 1.30099C11.1779 0.882205 10.0943 0.666656 8.99996 0.666656ZM12.725 6.01666L11.0583 10.125C10.9745 10.329 10.8511 10.5143 10.6952 10.6702C10.5392 10.8261 10.3539 10.9495 10.15 11.0333L6.04163 12.7C5.96608 12.7316 5.88277 12.7398 5.80252 12.7234C5.72227 12.7071 5.64879 12.667 5.59163 12.6083L5.39163 12.4083C5.33299 12.3512 5.29289 12.2777 5.27654 12.1974C5.26019 12.1172 5.26835 12.0339 5.29996 11.9583L6.96663 7.84999C7.05042 7.64602 7.17385 7.46071 7.32977 7.30479C7.48569 7.14887 7.671 7.02544 7.87496 6.94166L11.9833 5.27499C12.0588 5.24338 12.1422 5.23522 12.2224 5.25157C12.3027 5.26791 12.3761 5.30801 12.4333 5.36666L12.6333 5.56666C12.6919 5.62382 12.732 5.6973 12.7484 5.77755C12.7647 5.8578 12.7566 5.94111 12.725 6.01666Z" fill="#4A0A52"/>
</svg>
