<svg width="18" height="16" viewBox="0 0 18 16" fill="none" xmlns="http://www.w3.org/2000/svg">
<path fill-rule="evenodd" clip-rule="evenodd" d="M12.2082 0.0839038C12.734 0.0839038 13.259 0.15807 13.7582 0.32557C16.834 1.32557 17.9424 4.70057 17.0165 7.65057C16.4915 9.15807 15.6332 10.5339 14.509 11.6581C12.8999 13.2164 11.134 14.5997 9.23318 15.7914L9.02485 15.9172L8.80818 15.7831C6.90068 14.5997 5.12485 13.2164 3.50068 11.6497C2.38402 10.5256 1.52485 9.15807 0.991518 7.65057C0.049851 4.70057 1.15818 1.32557 4.26735 0.30807C4.50902 0.224737 4.75818 0.166404 5.00818 0.133904H5.10818C5.34235 0.0997371 5.57485 0.0839038 5.80818 0.0839038H5.89985C6.42485 0.0997371 6.93318 0.191404 7.42568 0.358904H7.47485C7.50818 0.374737 7.53318 0.392237 7.54985 0.408071C7.73402 0.467237 7.90818 0.533904 8.07485 0.62557L8.39152 0.767237C8.46804 0.808047 8.55392 0.870403 8.62815 0.924295C8.67518 0.95844 8.71753 0.989188 8.74985 1.0089C8.76345 1.01693 8.77728 1.025 8.79121 1.03313C8.86266 1.07484 8.93709 1.11829 8.99985 1.1664C9.92568 0.458904 11.0499 0.0755705 12.2082 0.0839038ZM14.4249 6.0839C14.7665 6.07474 15.0582 5.80057 15.0832 5.44974V5.35057C15.1082 4.18307 14.4007 3.12557 13.3249 2.71724C12.9832 2.59974 12.6082 2.7839 12.4832 3.1339C12.3665 3.4839 12.5499 3.86724 12.8999 3.9914C13.434 4.1914 13.7915 4.71724 13.7915 5.29974V5.32557C13.7757 5.5164 13.8332 5.70057 13.9499 5.84224C14.0665 5.9839 14.2415 6.0664 14.4249 6.0839Z" fill="#4A0A52"/>
</svg>
