<svg width="14" height="18" viewBox="0 0 14 18" fill="none" xmlns="http://www.w3.org/2000/svg">
<path d="M6.99959 0.666672C5.2316 0.666672 3.53602 1.369 2.28586 2.61916C1.03571 3.86932 0.333374 5.5649 0.333374 7.33289C0.333374 12.5159 4.54142 12.4742 5.54969 15.4823L5.97466 16.7656C6.03264 16.9381 6.14547 17.0868 6.29594 17.1891C6.4464 17.2914 6.62622 17.3417 6.80793 17.3322H7.27457C7.45628 17.3417 7.6361 17.2914 7.78656 17.1891C7.93703 17.0868 8.04987 16.9381 8.10784 16.7656L8.53282 15.4823C9.49942 12.4742 13.6658 12.5159 13.6658 7.33289C13.6658 5.5649 12.9635 3.86932 11.7133 2.61916C10.4632 1.369 8.76758 0.666672 6.99959 0.666672ZM6.99959 9.83272C6.50517 9.83272 6.02185 9.6861 5.61076 9.41142C5.19966 9.13673 4.87925 8.74631 4.69005 8.28953C4.50084 7.83275 4.45133 7.33011 4.54779 6.84519C4.64425 6.36027 4.88233 5.91485 5.23194 5.56524C5.58155 5.21563 6.02698 4.97755 6.51189 4.88109C6.99681 4.78463 7.49945 4.83414 7.95623 5.02334C8.41301 5.21255 8.80343 5.53296 9.07812 5.94405C9.3528 6.35515 9.49942 6.83847 9.49942 7.33289C9.49942 7.99588 9.23604 8.63172 8.76723 9.10053C8.29843 9.56934 7.66258 9.83272 6.99959 9.83272Z" fill="#4A0A52"/>
</svg>
