<svg width="18" height="14" viewBox="0 0 18 14" fill="none" xmlns="http://www.w3.org/2000/svg">
<path d="M15.6666 0.333344H2.33329C1.89127 0.333344 1.46734 0.508938 1.15478 0.821499C0.842221 1.13406 0.666626 1.55798 0.666626 2.00001V12C0.666626 12.442 0.842221 12.866 1.15478 13.1785C1.46734 13.4911 1.89127 13.6667 2.33329 13.6667H15.6666C16.1087 13.6667 16.5326 13.4911 16.8451 13.1785C17.1577 12.866 17.3333 12.442 17.3333 12V2.00001C17.3333 1.55798 17.1577 1.13406 16.8451 0.821499C16.5326 0.508938 16.1087 0.333344 15.6666 0.333344ZM15.6666 6.16668L10.375 9.87501C9.97182 10.1568 9.49183 10.3079 8.99996 10.3079C8.50809 10.3079 8.0281 10.1568 7.62496 9.87501L2.33329 6.16668V4.41668L8.45829 8.70834C8.61735 8.81874 8.80634 8.87789 8.99996 8.87789C9.19357 8.87789 9.38257 8.81874 9.54163 8.70834L15.6666 4.41668V6.16668Z" fill="#4A0A52"/>
</svg>
