<svg width="18" height="12" viewBox="0 0 18 12" fill="none" xmlns="http://www.w3.org/2000/svg">
<path d="M7.33287 3.91779C7.33287 3.50562 7.21065 3.10271 6.98166 2.76C6.75267 2.4173 6.4272 2.15019 6.0464 1.99246C5.66561 1.83473 5.24659 1.79346 4.84234 1.87387C4.43809 1.95428 4.06677 2.15276 3.77532 2.44421C3.48387 2.73566 3.28539 3.10698 3.20498 3.51123C3.12457 3.91548 3.16584 4.3345 3.32358 4.71529C3.48131 5.09609 3.74841 5.42156 4.09112 5.65055C4.43382 5.87953 4.83674 6.00176 5.24891 6.00176C5.80161 6.00176 6.33167 5.7822 6.72249 5.39138C7.11331 5.00056 7.33287 4.47049 7.33287 3.91779ZM11.5008 5.16817C11.0062 5.16817 10.5227 5.0215 10.1115 4.74672C9.7002 4.47193 9.37968 4.08137 9.1904 3.62441C9.00112 3.16746 8.9516 2.66464 9.04809 2.17954C9.14458 1.69444 9.38276 1.24885 9.73249 0.899112C10.0822 0.549375 10.5278 0.311201 11.0129 0.214709C11.498 0.118217 12.0008 0.16774 12.4578 0.357016C12.9147 0.546293 13.3053 0.866821 13.5801 1.27807C13.8549 1.68932 14.0016 2.17281 14.0016 2.66741C14.0016 3.33066 13.7381 3.96673 13.2691 4.43572C12.8001 4.9047 12.164 5.16817 11.5008 5.16817ZM6.95776 8.2191C7.16569 7.8026 7.48574 7.4524 7.8819 7.20794C8.27806 6.96347 8.73459 6.83443 9.2001 6.83534H13.8015C14.267 6.83443 14.7235 6.96347 15.1197 7.20794C15.5159 7.4524 15.8359 7.8026 16.0438 8.2191L17.2442 10.6282C17.3081 10.7551 17.3386 10.8962 17.3326 11.0382C17.3267 11.1801 17.2846 11.3182 17.2102 11.4393C17.1359 11.5604 17.0318 11.6605 16.9079 11.7301C16.784 11.7997 16.6444 11.8364 16.5023 11.8369H6.49928C6.35719 11.8364 6.21756 11.7997 6.09366 11.7301C5.96976 11.6605 5.8657 11.5604 5.79137 11.4393C5.71704 11.3182 5.6749 11.1801 5.66895 11.0382C5.663 10.8962 5.69345 10.7551 5.75739 10.6282L6.95776 8.2191ZM0.75588 10.6282L1.54778 9.04434C1.75624 8.63067 2.07549 8.28302 2.46995 8.04017C2.86441 7.79731 3.31857 7.66879 3.78179 7.66893H5.37394L4.26527 9.88627C4.11453 10.1863 4.02577 10.5137 4.00429 10.8488C3.98281 11.184 4.02904 11.52 4.14024 11.8369H1.49777C1.35567 11.8364 1.21605 11.7997 1.09215 11.7301C0.968248 11.6605 0.864191 11.5604 0.789858 11.4393C0.715525 11.3182 0.673386 11.1801 0.667439 11.0382C0.661491 10.8962 0.691935 10.7551 0.75588 10.6282Z" fill="#4A0A52"/>
</svg>
