<svg width="13" height="13" viewBox="0 0 13 13" fill="none" xmlns="http://www.w3.org/2000/svg">
<path d="M12.6609 11.6649L9.88349 8.88757C9.79353 8.79548 9.69336 8.71395 9.58493 8.64455L8.89059 8.16546C9.584 7.30747 9.9649 6.23911 9.97071 5.13596C9.97651 4.03281 9.60687 2.96051 8.92252 2.09527C8.23818 1.23002 7.27985 0.623326 6.20503 0.374875C5.13021 0.126424 4.00284 0.251002 3.0082 0.728136C2.01356 1.20527 1.21082 2.00657 0.731907 3.00036C0.252993 3.99414 0.126396 5.12129 0.372923 6.19655C0.619449 7.27181 1.22443 8.23123 2.08845 8.91712C2.95246 9.60301 4.0241 9.97457 5.12726 9.97074C6.22991 9.97106 7.29989 9.59645 8.16153 8.9084L8.68228 9.60274C8.74405 9.69216 8.81377 9.77582 8.89059 9.85271L11.6679 12.6301C11.7002 12.6626 11.7386 12.6884 11.7809 12.7061C11.8232 12.7237 11.8686 12.7328 11.9144 12.7328C11.9603 12.7328 12.0056 12.7237 12.048 12.7061C12.0903 12.6884 12.1287 12.6626 12.1609 12.6301L12.647 12.144C12.7104 12.0813 12.7473 11.9965 12.7499 11.9073C12.7524 11.818 12.7206 11.7313 12.6609 11.6649ZM5.12726 8.58206C4.44062 8.58206 3.7694 8.37845 3.19848 7.99697C2.62757 7.6155 2.18259 7.07329 1.91982 6.43892C1.65706 5.80455 1.58831 5.10651 1.72226 4.43306C1.85622 3.75962 2.18687 3.14102 2.67239 2.65549C3.15792 2.16997 3.77652 1.83932 4.44996 1.70536C5.12341 1.57141 5.82145 1.64016 6.45582 1.90292C7.09019 2.16569 7.6324 2.61067 8.01388 3.18158C8.39535 3.7525 8.59896 4.42372 8.59896 5.11036C8.59896 6.03111 8.2332 6.91415 7.58212 7.56522C6.93105 8.21629 6.04801 8.58206 5.12726 8.58206Z" fill="white"/>
</svg>
